<svg xmlns="http://www.w3.org/2000/svg" width="139.956" height="60.037" viewBox="0 0 2140 918"><defs><style>.cls-2{fill-rule:evenodd;fill:#fff}</style></defs><path id="Рога" d="M108 144c11.328.21 20.522 5.066 25 12 8.621 13.348-1.388 43.17 2 60 5.588 27.763 16.453 44.684 28 66 5.052 9.326 5.089 23.549-2 31-31.407 33.009-71.363-53.274-69-75l-2 1c-8.713 27.818-30.578 58.172-24 100 2.564 16.3 18.889 62.731 17 71a24.973 24.973 0 01-31 18c-22.421-5.788-40.455-80.311-34-118 11.036-64.44 41.817-140.178 90-166zm490 0c24.144.659 33.7 23.055 44 38 24.238 35.166 42.041 71.012 52 125 6.781 36.76-9.991 109.514-28 119-19.991 10.53-34.135-6.237-37-21-1.438-7.413 14.5-43.835 17-57 9.116-48.1-15.13-81.391-24-110h-1c-4.276 33.118-35.105 108.012-73 70-1.811-7.956-3.088-18.143 1-25 11.9-19.953 22.233-40.988 29-67 10.03-38.555-15.068-53.141 20-72z" fill-rule="evenodd" fill="#fab142"/><path id="Сердце" class="cls-2" d="M230 336c42.05-.618 75.956 11.527 102 28 8.2 5.185 15.9 14.266 26 17 10.482-12.312 27.757-18.341 43-26 86.671-43.547 173.343-6.126 201 69 5.6 15.2 13.955 38.685 10 62-20.848 122.889-89.66 174.5-170 238-18.307 14.469-56.755 43.9-80 50-15.792 4.146-30.5-10.59-39-16-30.709-19.531-59.914-37.459-87-60-55.976-46.582-162.265-144.491-130-258 4.735-16.658 7.446-30.35 16-43 15.685-23.195 40.709-44.752 70-54zm-1 48c-20.242 8.317-35.951 9.126-51 21-39 30.772-31.853 107.512-8 149 44.521 77.436 113.621 117.345 185 168 22.486-4.787 44.727-26.81 62-39 54.042-38.141 107.532-83.766 135-148 18.93-44.268 12.634-102.5-17-130-36.22-33.612-101.986-18.1-137 5-11.222 7.4-25.751 30.388-45 27-12.775-2.248-19.189-13.53-28-20-24.735-18.163-53.372-33.058-96-33z"/><path id="INTIM_EKB" data-name="INTIM EKB" class="cls-2" d="M925.683 265.037q0-71.319 2.513-120.025H873.5q2.51 49.481 2.512 120.025 0 71.709-2.512 131.622h54.7q-2.514-58.753-2.513-131.622zm262.857 0q0-72.09 2.71-120.025h-48.32q2.7 55.083 2.7 107.462a730.518 730.518 0 004.64 77.311h-2.9q-7.53-27.057-58.37-103.017-47.73-71.509-47.74-81.756h-57.4q2.9 49.481 2.9 120.025 0 71.709-2.9 131.622h47.55q-2.715-68.611-2.71-116.353a680.911 680.911 0 00-4.83-76.538h3.09q7.725 29.38 63.4 109.2 53.145 75.766 53.15 83.689h47.74q-2.715-58.948-2.71-131.622zm36.34-120.025l-1.55 41.747q47.55-3.088 74.8-3.092.765 37.3.77 81.37 0 70.16-2.51 131.622h54.12q-2.13-62.043-2.13-131.622 0-44.838.39-81.37 34.2 0 72.86 2.9l1.36-41.554h-198.11zm282.38 120.025q0-71.319 2.51-120.025h-54.7q2.505 49.481 2.51 120.025 0 71.709-2.51 131.622h54.7q-2.52-58.753-2.51-131.622zm339.68 22.71q-8.985-102.726-8.99-142.735h-74.22q0 21.453-26.96 95.285T1709.81 335h-2.9q0-20.679-23.68-94.512t-23.67-95.479h-74.8q0 25.127-14.01 135.487t-14.02 116.16h51.03q0-25.123 4.54-104.563t4.74-103.6h2.9a485.007 485.007 0 0010.82 48.706q6.765 24.547 28.7 85.815t21.94 73.639h42.71q0-11.982 22.91-72.963 22.89-60.976 31.21-92.289t10.24-42.908h2.9q.2 19.329 4.25 97.315t4.06 110.845h56.25q0-6.178-8.99-108.906zM916.793 745.372q-1.74-43.488-1.74-93.16 48.707 0 91.617 1.74v-28.8q-40.207 2.319-91.617 2.32 0-51.025-1.159-80.984 59.527 0 112.676 2.32l1.55-28.8H882q2.7 51.416 2.706 119.446 0 72.288-2.706 132.2h155.78l1.16-29.184q-57.975 2.9-122.147 2.9zm317.167-42.328q-51.8-68.226-74.02-76.731v-1.933q20.1-14.5 61.36-56.534t41.27-47.836h-40.21q0 5.8-42.42 55.084-42.435 49.287-53.05 49.286h-4.45q0-52.954 1.93-104.37h-36.33q2.895 51.416 2.9 119.446 0 72.288-2.9 132.2h36.33q-1.935-80.981-1.93-126.21h5.99q13.725 0 42.33 32.278 21.06 23.772 46.58 60.3 22.035 31.506 22.03 33.63h42.33q0-5.8-47.74-68.613zm210.87-69.193v-1.933q38.07-14.3 38.07-57.6 0-55.469-80.4-55.47-9.285 0-29.77.58t-27.25.579h-23.19q2.7 51.416 2.7 119.446 0 72.288-2.7 132.2 44.07 1.161 59.14 1.16 54.315 0 85.43-19.907 31.89-20.485 31.89-57.984 0-51.41-53.92-61.075zm3.86 99.731q-19.515 12.175-66.1 12.176-18.555 0-25.9-1.739-2.13-40.588-2.12-92.194 11.775-1.159 27.25-1.159 84.27 0 84.27 47.546 0 24.352-17.4 35.37zm-17.97-116.353q-17.4 8.7-55.67 8.7-11.4 0-20.87-.386 0-64.746-1.55-78.664 16.815-2.9 43.88-2.9 53.925 0 53.92 40.008 0 23.583-19.71 33.244z"/></svg>